<svg id="Capa_1" data-name="Capa 1" xmlns="http://www.w3.org/2000/svg" viewBox="0 0 73.19 67.82">
  <g id="Grupo_8" data-name="Grupo 8">
    <g id="Grupo_9" data-name="Grupo 9">
      <g id="Grupo_5" data-name="Grupo 5">
        <path id="Trazado_3" data-name="Trazado 3" d="M29.54,60.69c.26-.84-.53-.75-.93-.49A6.55,6.55,0,0,1,25,61.35a4,4,0,0,1-3.17-1.1,3.73,3.73,0,0,1-.66-2.51S21,54.57,21,52.54c0-2.2.14-5.86.14-5.86,0-.35.08-.44.44-.44h6.22a.55.55,0,0,0,.62-.44l.44-1.63a.31.31,0,0,0-.18-.38h-7c-.35,0-.44-.18-.44-.62a25.55,25.55,0,0,1,.22-2.9.59.59,0,0,0-.46-.68h0a.56.56,0,0,0-.55.19,68.75,68.75,0,0,1-6.3,5,.58.58,0,0,0-.3.77.57.57,0,0,0,.3.29l1.77.62c.26.08.44.13.44.79l-.09,11.41c0,1.85.26,3.35,1,4.14,1,1.19,2.86,1.81,5.55,1.81a8.23,8.23,0,0,0,6.65-3.92"/>
      </g>
      <g id="Grupo_6" data-name="Grupo 6">
        <path id="Trazado_4" data-name="Trazado 4" d="M47.26,5.8A2.64,2.64,0,1,0,42,5.8h0A2.6,2.6,0,0,0,44.6,8.4h0a2.61,2.61,0,0,0,2.64-2.58h0M49.09,33.6l-1.5-.22c-.75-.13-.88-.35-.88-2v-12c0-2,.18-5.33.18-5.33,0-1.54-.75-1.1-1.46-.83l-5.41,2c-.49.17-.53.61-.18,1l1.5,1.45a1.71,1.71,0,0,1,.7,1.45V31.34c0,1.59.09,1.9-.88,2l-1.46.22a.82.82,0,0,0-.06,1.16.64.64,0,0,0,.2.16c1.32-.09,3.21-.18,4.58-.18,1.72,0,3.7.09,4.53.18a.76.76,0,0,0,.43-1v0a.83.83,0,0,0-.25-.33"/>
      </g>
    </g>
  </g>
</svg>
