<svg id="Capa_1" data-name="Capa 1" xmlns="http://www.w3.org/2000/svg" viewBox="0 0 1167.45 737.87"><defs><style>.cls-1{isolation:isolate;}</style></defs><title>Mesa de trabajo 1 copia</title><g id="Grupo_10" data-name="Grupo 10"><g id="Spanish_literature_Stockholm_2-4_December_2021" data-name="Spanish literature Stockholm 2-4 December 2021" class="cls-1"><g class="cls-1"><path d="M676.39,506.18a17.27,17.27,0,0,1-5.51-1.12c-.71-.24-.68-.1-.78-1.16l-.44-4.38s0-.45.37-.51.65.17.82.64c.47,2.18,2.28,5.2,5.1,5.2,3.87,0,4.93-2.14,4.93-4.28,0-1.36-1.13-2.69-2.59-3.67l-3.16-2.18c-2.31-1.59-4.32-3.16-4.32-6.22,0-3.43,2.72-6.42,7.86-6.42a21.58,21.58,0,0,1,5.16.81c.38.1.48.1.51.61l.34,4.63c-.23.37-.71.41-1.08-.17-.55-1.67-1.4-4.83-5-4.83a3.92,3.92,0,0,0-4.08,3.88c0,1.8.71,2.85,3.3,4.59l4.25,2.85a6.08,6.08,0,0,1,2.89,5.07C685,503.49,680.94,506.18,676.39,506.18Z"/><path d="M696.14,505.91a7,7,0,0,1-2.89-.65c0,3.91.14,5.48.14,5.48,0,1.32.17,1.56.75,1.63l1.59.2a.59.59,0,0,1-.13,1c-.65-.07-2.59-.14-3.91-.14-1.06,0-2.75.07-3.77.14a.63.63,0,0,1-.11-1l1-.17c.75-.13.82-.44.82-1.66V493.06a.71.71,0,0,0-.28-.68l-1.32-1a.41.41,0,0,1,.13-.72,21.06,21.06,0,0,0,4-1.63c.78-.44,1.22-.37,1.18.38,0,0-.1,1.29-.1,1.87a7.34,7.34,0,0,1,4.93-2c4.52,0,6.53,3.44,6.53,7.52C704.71,501.83,701.41,505.91,696.14,505.91ZM696,491.36a5.61,5.61,0,0,0-2.68.58s-.07,2.85-.07,4.65c0,2.11,0,5.48,0,5.48a4.11,4.11,0,0,0,3.44,2.58c3.4,0,4.31-4,4.31-7C701,494.38,699.07,491.36,696,491.36Z"/><path d="M717.39,506.11a2.78,2.78,0,0,1-2.89-2.38c-.81.82-2.11,2.25-4.15,2.25a3.49,3.49,0,0,1-3.7-3.47c0-1.6.92-2.59,2.62-3.27l5.1-2.07v-3.5c0-1.67-1.94-2-3.06-2.07-.85-.07-2.14.1-2.14.95a5.22,5.22,0,0,0,.06.71l.21,1.33a11.38,11.38,0,0,1-2.45.78,1.56,1.56,0,0,1-.24-.89c0-1.66,3.26-5.2,6.6-5.2,2.85,0,4.55,1.19,4.55,3.27v9.14c0,1.5.31,2,1.19,2a2,2,0,0,0,1-.3c.44-.38.61-.1.44.44A3.55,3.55,0,0,1,717.39,506.11Zm-3-7.68c0-.24-.11-.27-.34-.17l-2.48,1.15a2.2,2.2,0,0,0-1.3,2.15,2.17,2.17,0,0,0,2.45,2.07,3.62,3.62,0,0,0,1.67-.44Z"/><path d="M738.78,505.7c-1-.06-2.32-.13-3.37-.13-1.32,0-3.09.07-3.74.13a.59.59,0,0,1-.13-1l1.08-.17c.58-.1.65-.37.68-1.66,0,0,.14-3.47.14-5.71v-1.09c0-2,0-4.18-2.79-4.18a5.36,5.36,0,0,0-3.09.74v4.53c0,2.17.13,5.71.13,5.71,0,1.29.11,1.56.68,1.66l1.09.17a.59.59,0,0,1-.13,1c-.65-.06-2.25-.13-3.57-.13-1.06,0-2.52.07-3.54.13a.64.64,0,0,1-.1-1l1.12-.17c.75-.1.68-.44.68-1.66V493.4c0-.65-.14-.75-.34-1l-1.22-1.12c-.27-.3-.17-.54.06-.68l4.29-1.66c.68-.38,1-.24,1,.34,0,0-.13,1.19-.13,2.21v.41a8.15,8.15,0,0,1,6.08-2.66c2.62,0,3.44,2,3.44,4.12v9.45c0,1.22-.07,1.56.68,1.66l1.12.17A.64.64,0,0,1,738.78,505.7Z"/><path d="M748.54,505.7c-.65-.06-2.18-.13-3.51-.13-1,0-2.51.07-3.53.13a.63.63,0,0,1-.1-1l1.12-.17c.75-.1.68-.34.68-1.56v-9.48a1.32,1.32,0,0,0-.55-1.13l-1.15-1.12c-.27-.27-.24-.61.13-.75l4.22-1.53c.54-.2,1.16-.54,1.12.65,0,0-.13,2.55-.13,4.11V503c0,1.29.1,1.46.68,1.56l1.15.17A.59.59,0,0,1,748.54,505.7Zm-3.34-20.46a2,2,0,0,1-2-2,2,2,0,1,1,4.08,0A2,2,0,0,1,745.2,485.24Z"/><path d="M755.34,506.18a10.78,10.78,0,0,1-3.78-.61c-.51-.17-.58-.34-.61-1.09l-.2-3.13a.6.6,0,0,1,1,0c.44,1.36,1.09,3.46,3.3,3.46,1.94,0,3.3-.85,3.3-2.78,0-1.36-.82-2-2-2.52L754,498.5a4.58,4.58,0,0,1-3-4.46c0-2.72,2.45-4.82,6.16-4.82a13,13,0,0,1,3.46.54c.31.14.65.24.68.65l.17,3.36a.64.64,0,0,1-1.09-.07c-.27-1.32-1.15-3.23-3.26-3.23a2.65,2.65,0,0,0-2.68,2.42c0,1.49.71,2,2,2.62l2.58,1.25a4.82,4.82,0,0,1,2.92,4.52C762,504.24,758.94,506.18,755.34,506.18Z"/><path d="M780.77,505.7c-1-.06-2.32-.13-3.37-.13-1.32,0-3.13.07-3.77.13a.59.59,0,0,1-.14-1l1.09-.17c.58-.1.64-.37.68-1.66,0,0,.13-3.44.13-5.44v-.68c0-2.11.28-4.86-2.82-4.86a4.89,4.89,0,0,0-3,.88v4.69c0,1.67.13,5.41.13,5.41,0,1.26.11,1.56.68,1.66l1.09.17a.59.59,0,0,1-.13,1c-.65-.06-2.25-.13-3.57-.13-1.06,0-2.52.07-3.54.13a.63.63,0,0,1-.1-1l1.12-.17c.75-.1.68-.44.68-1.66v-18a1.07,1.07,0,0,0-.34-.88l-1.29-1.29c-.21-.21-.41-.58.07-.72l4.69-1.36c.75-.2.78,0,.78.34,0,0-.34,3.91-.34,11.12a8.11,8.11,0,0,1,6.15-2.79c1.8,0,3.44,1,3.44,4.76v8.81c0,1.22-.07,1.56.68,1.66l1.12.17A.64.64,0,0,1,780.77,505.7Z"/><path d="M797.6,505.7c-1-.06-2.49-.13-3.54-.13-1.32,0-2.85.07-3.5.13a.59.59,0,0,1-.14-1l1.16-.17c.58-.1.68-.37.68-1.66v-18a.92.92,0,0,0-.34-.85l-1.29-1.29c-.31-.3-.31-.64.07-.75l4.69-1.36c.71-.2.78,0,.78.34,0,0-.27,4.12-.27,9.59v12.31c0,1.22-.07,1.56.68,1.66l1.12.17A.64.64,0,0,1,797.6,505.7Z"/><path d="M807.52,505.7c-.64-.06-2.17-.13-3.5-.13-1,0-2.51.07-3.53.13a.63.63,0,0,1-.11-1l1.13-.17c.74-.1.68-.34.68-1.56v-9.48a1.32,1.32,0,0,0-.55-1.13l-1.15-1.12a.42.42,0,0,1,.13-.75l4.22-1.53c.54-.2,1.15-.54,1.12.65,0,0-.14,2.55-.14,4.11V503c0,1.29.11,1.46.68,1.56l1.16.17A.59.59,0,0,1,807.52,505.7Zm-3.33-20.46a2,2,0,0,1-2-2,2,2,0,1,1,4.08,0A2,2,0,0,1,804.19,485.24Z"/><path d="M816.67,506c-2.07,0-3.47-.48-4.28-1.4a5,5,0,0,1-.75-3.19l.07-8.81c0-.51-.14-.54-.34-.61l-1.36-.48a.44.44,0,0,1,0-.81,50.89,50.89,0,0,0,4.86-3.88.45.45,0,0,1,.79.38,20,20,0,0,0-.17,2.24c0,.34.06.48.34.48h5.3a.22.22,0,0,1,.2.3l-.34,1.26a.41.41,0,0,1-.47.34h-4.83c-.27,0-.34.07-.34.34,0,0-.1,2.82-.1,4.52s.1,4,.1,4a3,3,0,0,0,.51,1.94,3.08,3.08,0,0,0,2.45.85,5.09,5.09,0,0,0,2.82-.88c.31-.21.92-.28.71.37A6.33,6.33,0,0,1,816.67,506Z"/><path d="M836,502.47a7.43,7.43,0,0,1-6.39,3.68c-4.73,0-7.48-3.37-7.48-8.54,0-5,3.12-8.33,8.16-8.33,2.58,0,5.61,1.3,5.57,4.22a3.51,3.51,0,0,1-.41,1.73l-9.86-.13a11.56,11.56,0,0,0-.06,1.46c0,4.18,2.68,6.76,5.54,6.76a6,6,0,0,0,4.52-1.73c.2-.14.51-.17.61,0S836.08,502.24,836,502.47Zm-6.22-12.13c-2.42,0-3.74,2.68-3.91,3.77l4.31-.1c1.77,0,2-.24,2-1.36A2.16,2.16,0,0,0,829.73,490.34Z"/><path d="M848.39,493.67a2.67,2.67,0,0,1-1.8-.82,1.55,1.55,0,0,0-1.26-.58c-.68,0-1,.31-1.63,1v1.53c0,1.73.1,8.05.1,8.05,0,1.47.1,1.57.68,1.64l2.18.2a.61.61,0,0,1-.14,1.05c-.64-.06-3.3-.13-4.62-.13-1.06,0-2.52.07-3.54.13a.64.64,0,0,1-.1-1l1.12-.17c.75-.1.68-.44.68-1.66V493.4c0-.65-.13-.75-.34-1l-1.22-1.12c-.27-.3-.17-.54.07-.68l4.28-1.66c.68-.38,1-.24,1,.34,0,0-.14,1.36-.14,2.38v.61c.82-1.39,2.35-3.06,4.22-3.06,1.39,0,2.51.71,2.51,2.18A2.08,2.08,0,0,1,848.39,493.67Z"/><path d="M861.75,506.11a2.78,2.78,0,0,1-2.89-2.38c-.81.82-2.1,2.25-4.14,2.25a3.49,3.49,0,0,1-3.71-3.47c0-1.6.92-2.59,2.62-3.27l5.1-2.07v-3.5c0-1.67-1.94-2-3.06-2.07-.85-.07-2.14.1-2.14.95a5.22,5.22,0,0,0,.06.71l.21,1.33a11.21,11.21,0,0,1-2.45.78,1.56,1.56,0,0,1-.24-.89c0-1.66,3.27-5.2,6.6-5.2,2.85,0,4.55,1.19,4.55,3.27v9.14c0,1.5.31,2,1.19,2a2,2,0,0,0,1-.3c.44-.38.61-.1.44.44A3.55,3.55,0,0,1,861.75,506.11Zm-3-7.68c0-.24-.1-.27-.34-.17l-2.48,1.15a2.2,2.2,0,0,0-1.3,2.15,2.17,2.17,0,0,0,2.45,2.07,3.62,3.62,0,0,0,1.67-.44Z"/><path d="M872.91,506c-2.08,0-3.47-.48-4.29-1.4a5.06,5.06,0,0,1-.75-3.19l.07-8.81c0-.51-.13-.54-.34-.61l-1.36-.48a.44.44,0,0,1,0-.81,50.89,50.89,0,0,0,4.86-3.88.45.45,0,0,1,.78.38,20,20,0,0,0-.17,2.24c0,.34.07.48.34.48h5.3a.23.23,0,0,1,.21.3l-.34,1.26a.43.43,0,0,1-.48.34h-4.83c-.27,0-.33.07-.33.34,0,0-.11,2.82-.11,4.52s.11,4,.11,4a3,3,0,0,0,.5,1.94,3.11,3.11,0,0,0,2.45.85,5,5,0,0,0,2.82-.88c.31-.21.92-.28.72.37A6.33,6.33,0,0,1,872.91,506Z"/><path d="M890.48,506.21c-.61.24-1,.21-1-.34,0,0,.14-1.46.14-2.38A8.79,8.79,0,0,1,884.3,506a3.87,3.87,0,0,1-4.15-3.94v-9.42c0-.75-.17-.88-.55-1.12l-1.22-.82a.46.46,0,0,1,.07-.85,32.38,32.38,0,0,0,4.55-.34c.75-.13.92-.24.92.55,0,1.25-.13,3.16-.13,5.13v5c0,1.9.34,3.33,3,3.33a5.54,5.54,0,0,0,2.93-.89v-9.82a1.34,1.34,0,0,0-.89-1.36l-1.53-.75a.48.48,0,0,1,.07-.85,16.3,16.3,0,0,0,5.78-.58c.41,0,.37.31.37.31s-.17,2.75-.17,4.22v8.9c0,1-.1,1.6,1.06,1.4l.81-.14a.59.59,0,0,1,0,1A30.7,30.7,0,0,0,890.48,506.21Z"/><path d="M907.92,493.67a2.67,2.67,0,0,1-1.8-.82,1.54,1.54,0,0,0-1.25-.58c-.69,0-1,.31-1.64,1v1.53c0,1.73.11,8.05.11,8.05,0,1.47.1,1.57.67,1.64l2.18.2a.61.61,0,0,1-.14,1.05c-.64-.06-3.29-.13-4.62-.13-1,0-2.51.07-3.53.13a.63.63,0,0,1-.11-1l1.13-.17c.74-.1.68-.44.68-1.66V493.4c0-.65-.14-.75-.35-1L898,491.32c-.27-.3-.17-.54.07-.68l4.28-1.66c.68-.38,1-.24,1,.34,0,0-.14,1.36-.14,2.38v.61c.82-1.39,2.35-3.06,4.22-3.06,1.39,0,2.51.71,2.51,2.18A2.08,2.08,0,0,1,907.92,493.67Z"/><path d="M924.38,502.47a7.43,7.43,0,0,1-6.39,3.68c-4.73,0-7.48-3.37-7.48-8.54,0-5,3.13-8.33,8.16-8.33,2.58,0,5.61,1.3,5.57,4.22a3.63,3.63,0,0,1-.4,1.73L914,495.1a9.92,9.92,0,0,0-.07,1.46c0,4.18,2.68,6.76,5.54,6.76a6,6,0,0,0,4.52-1.73c.21-.14.51-.17.61,0S924.52,502.24,924.38,502.47Zm-6.22-12.13c-2.41,0-3.74,2.68-3.91,3.77l4.32-.1c1.76,0,2-.24,2-1.36A2.16,2.16,0,0,0,918.16,490.34Z"/></g><g class="cls-1"><path d="M676.39,545.18a17.27,17.27,0,0,1-5.51-1.12c-.71-.24-.68-.1-.78-1.16l-.44-4.38s0-.45.37-.51.65.17.82.64c.47,2.18,2.28,5.2,5.1,5.2,3.87,0,4.93-2.14,4.93-4.28,0-1.36-1.13-2.69-2.59-3.67l-3.16-2.18c-2.31-1.59-4.32-3.16-4.32-6.22,0-3.43,2.72-6.42,7.86-6.42a21.58,21.58,0,0,1,5.16.81c.38.1.48.1.51.61l.34,4.63c-.23.37-.71.41-1.08-.17-.55-1.67-1.4-4.83-5-4.83a3.92,3.92,0,0,0-4.08,3.88c0,1.8.71,2.85,3.3,4.59l4.25,2.85a6.08,6.08,0,0,1,2.89,5.07C685,542.49,680.94,545.18,676.39,545.18Z"/><path d="M694.41,545c-2.07,0-3.47-.48-4.28-1.4a5,5,0,0,1-.75-3.19l.07-8.81c0-.51-.14-.54-.34-.61l-1.36-.48a.44.44,0,0,1,0-.81,50.89,50.89,0,0,0,4.86-3.88.45.45,0,0,1,.78.38,20,20,0,0,0-.17,2.24c0,.34.07.48.34.48h5.31a.23.23,0,0,1,.2.3l-.34,1.26a.42.42,0,0,1-.47.34h-4.83c-.27,0-.34.07-.34.34,0,0-.1,2.82-.1,4.52s.1,4,.1,4a2.89,2.89,0,0,0,.51,1.94,3.08,3.08,0,0,0,2.45.85,5.09,5.09,0,0,0,2.82-.88c.3-.21.92-.28.71.37A6.33,6.33,0,0,1,694.41,545Z"/><path d="M708.14,545.21c-4.86,0-8.32-3.16-8.32-8.63a8.37,8.37,0,0,1,8.36-8.33c4.72,0,8.43,3,8.43,8.6A8.39,8.39,0,0,1,708.14,545.21Zm-.27-15.67c-3,0-3.94,3-3.94,6.26,0,4.21,1.43,8.16,4.62,8.16,3,0,3.91-3,3.91-6.4C712.46,533.76,711.34,529.54,707.87,529.54Z"/><path d="M726.23,545.11c-5.34,0-7.71-3.91-7.71-8,0-5.3,3.4-8.84,8.77-8.84,3.29,0,4.89,1.33,4.89,2.42,0,1.63-.95,2-1.8,2a1.78,1.78,0,0,1-1.53-.85c-.41-.75-.27-2.41-2.69-2.41-2.78,0-3.91,3.71-3.91,6.49,0,4.18,2.38,7,5.89,7a7.09,7.09,0,0,0,3.6-1.09c.31-.1.58,0,.51.48A7.34,7.34,0,0,1,726.23,545.11Z"/><path d="M750.78,544.7c-.65-.06-2.86-.13-4.18-.13-1.06,0-2.69.07-3.71.13a.64.64,0,0,1-.1-1l.78-.13c.75-.14.85-.68.21-1.46l-4.42-5.55-.11.07v5.24c0,1.29.11,1.6.68,1.7l.82.13a.59.59,0,0,1-.14,1c-.64-.06-2-.13-3.33-.13-1,0-2.48.07-3.5.13a.63.63,0,0,1-.1-1l1.19-.17c.75-.1.68-.4.68-1.66V523.69a1.05,1.05,0,0,0-.27-.85l-1.3-1.12c-.34-.24-.3-.64.07-.75l4.69-1.36c.75-.2.79,0,.79.34,0,0-.28,3.78-.28,10.65V536l.11,0,4.45-4.59c.65-.65.85-1.46.14-1.56l-1.16-.17a.59.59,0,0,1,.14-1c.64.06,2.31.13,3.63.13,1.06,0,2.69-.07,3.71-.13a.69.69,0,0,1,.1,1.08l-1.46.21c-.75.1-2.11.27-4.52,2.72l-1.94,2,4.93,6.22c.41.54,1.56,2.41,2.55,2.58l1,.17A.59.59,0,0,1,750.78,544.7Z"/><path d="M768.56,544.7c-1-.06-2.31-.13-3.36-.13-1.33,0-3.13.07-3.78.13a.59.59,0,0,1-.13-1l1.08-.17c.58-.1.65-.37.68-1.66,0,0,.14-3.44.14-5.44v-.68c0-2.11.27-4.86-2.82-4.86a4.91,4.91,0,0,0-3,.88v4.69c0,1.67.14,5.41.14,5.41,0,1.26.1,1.56.68,1.66l1.09.17a.59.59,0,0,1-.14,1c-.65-.06-2.24-.13-3.57-.13-1,0-2.52.07-3.54.13a.64.64,0,0,1-.1-1l1.12-.17c.75-.1.68-.44.68-1.66v-18a1,1,0,0,0-.34-.88l-1.29-1.29c-.2-.21-.41-.58.07-.72l4.69-1.36c.75-.2.78,0,.78.34,0,0-.34,3.91-.34,11.12a8.13,8.13,0,0,1,6.16-2.79c1.8,0,3.43,1,3.43,4.76v8.81c0,1.22-.07,1.56.68,1.66l1.12.17A.63.63,0,0,1,768.56,544.7Z"/><path d="M778.93,545.21c-4.86,0-8.33-3.16-8.33-8.63a8.37,8.37,0,0,1,8.36-8.33c4.73,0,8.44,3,8.44,8.6A8.39,8.39,0,0,1,778.93,545.21Zm-.27-15.67c-3,0-3.94,3-3.94,6.26,0,4.21,1.42,8.16,4.62,8.16,3,0,3.91-3,3.91-6.4C783.25,533.76,782.13,529.54,778.66,529.54Z"/><path d="M796.61,544.7c-1-.06-2.48-.13-3.53-.13-1.33,0-2.86.07-3.51.13a.59.59,0,0,1-.13-1l1.15-.17c.58-.1.68-.37.68-1.66v-18a.92.92,0,0,0-.34-.85l-1.29-1.29c-.3-.3-.3-.64.07-.75l4.69-1.36c.72-.2.78,0,.78.34,0,0-.27,4.12-.27,9.59v12.31c0,1.22-.07,1.56.68,1.66l1.12.17A.63.63,0,0,1,796.61,544.7Z"/><path d="M825.27,544.7c-1-.06-2.31-.13-3.36-.13-1.33,0-3.13.07-3.78.13a.59.59,0,0,1-.13-1l1.15-.17c.58-.1.65-.37.68-1.66,0,0,.1-2,.1-3.67V535c0-2.65-.61-4.12-2.85-4.12a6.43,6.43,0,0,0-2.89.75v10.27c0,1.36.1,1.56.68,1.66l1.12.17a.64.64,0,0,1-.1,1c-1-.06-2.31-.13-3.37-.13-1.32,0-3,.07-3.67.13a.59.59,0,0,1-.14-1l1.16-.17c.58-.1.68-.37.68-1.66v-8.6c0-1.74-1-2.42-2.65-2.42a7.21,7.21,0,0,0-3.09.68v6c0,1.59.1,4.35.1,4.35,0,1.29.1,1.56.68,1.66l1.15.17a.59.59,0,0,1-.13,1c-.65-.06-2.45-.13-3.78-.13-1.05,0-2.34.07-3.36.13a.63.63,0,0,1-.1-1l1.12-.17c.75-.1.68-.44.68-1.66V532.4c0-.65-.14-.75-.34-1l-1.23-1.12c-.27-.27-.23-.54.07-.68L804,528c.67-.38,1-.24,1,.34,0,0-.13,1.19-.13,2.21v.41a7.16,7.16,0,0,1,5.23-2.66c2.62,0,3.74,1,4.05,2.69a8.79,8.79,0,0,1,5.54-2.72c3.36,0,3.94,2.35,3.94,3.77v9.83c0,1.22-.07,1.56.68,1.66l1.12.17A.63.63,0,0,1,825.27,544.7Z"/><path d="M848.09,544.57H835.54c-.75,0-.58-.58-.1-.92a34.42,34.42,0,0,0,3.67-3c2.18-2,4.08-4.08,4.08-6.63,0-2-1.29-3-3.43-3a5.26,5.26,0,0,0-3.23,1.19c-.51.37-.75.47-.95.47a.34.34,0,0,1-.38-.37c0-.44.41-1,1.29-1.84a8.12,8.12,0,0,1,5.41-2.24c2.82,0,4.83,1.6,4.83,4.45,0,1.84-.89,3.54-5.38,7.69L840,541.68h5.68c1.87,0,2.89-1.19,3.91-3a.61.61,0,0,1,1,.27Z"/><path d="M861.75,536.34H853l.44-3.16h8.7Z"/><path d="M880.52,544.57h-3.4V552l-3.3.79v-8.23h-9.41c-.65-.1-.61-.44-.41-.85l12.24-16c.27-.34.92-.41.92.44v13.43h4.35Zm-6.7-11.46-6.25,8.5h6.25Z"/><path d="M901.3,544.91c-2.49,0-4-.34-6.16-.34-1.22,0-3.77.1-5,.17a.7.7,0,0,1-.14-1.12l2.08-.31c.81-.14,1.12-1,1.12-3V525.84c0-2-.24-2.83-1.12-3l-1.53-.27a.66.66,0,0,1,.17-1.15c.74.06,3,.17,4.55.17,1.23,0,3.5-.14,4.76-.14,8.13,0,14.45,5.13,14.45,12.07C914.52,540.11,909.49,544.91,901.3,544.91Zm-2.49-22.27h-1.08c-.41,0-.48.2-.48.48v16.76c0,3.43.54,3.77,4.21,3.91,4,.13,8.64-3.74,8.64-10.37S905.41,522.64,898.81,522.64Z"/><path d="M930.37,541.47a7.44,7.44,0,0,1-6.4,3.68c-4.72,0-7.48-3.37-7.48-8.54,0-5,3.13-8.33,8.16-8.33,2.59,0,5.61,1.3,5.58,4.22a3.62,3.62,0,0,1-.41,1.73L920,534.1a9.92,9.92,0,0,0-.07,1.46c0,4.18,2.69,6.76,5.55,6.76a6,6,0,0,0,4.52-1.73c.2-.14.51-.17.61,0S930.5,541.24,930.37,541.47Zm-6.23-12.13c-2.41,0-3.74,2.68-3.91,3.77l4.32-.1c1.77,0,2-.24,2-1.36A2.17,2.17,0,0,0,924.14,529.34Z"/><path d="M939.85,545.11c-5.34,0-7.72-3.91-7.72-8,0-5.3,3.4-8.84,8.78-8.84,3.29,0,4.89,1.33,4.89,2.42,0,1.63-.95,2-1.8,2a1.77,1.77,0,0,1-1.53-.85c-.41-.75-.27-2.41-2.69-2.41-2.78,0-3.91,3.71-3.91,6.49,0,4.18,2.38,7,5.88,7a7.1,7.1,0,0,0,3.61-1.09c.3-.1.58,0,.51.48A7.34,7.34,0,0,1,939.85,545.11Z"/><path d="M961.13,541.47a7.42,7.42,0,0,1-6.39,3.68c-4.72,0-7.48-3.37-7.48-8.54,0-5,3.13-8.33,8.16-8.33,2.59,0,5.61,1.3,5.58,4.22a3.62,3.62,0,0,1-.41,1.73l-9.86-.13a9.92,9.92,0,0,0-.07,1.46c0,4.18,2.69,6.76,5.55,6.76a6,6,0,0,0,4.52-1.73c.2-.14.51-.17.61,0S961.27,541.24,961.13,541.47Zm-6.22-12.13c-2.41,0-3.74,2.68-3.91,3.77l4.32-.1c1.77,0,2-.24,2-1.36A2.17,2.17,0,0,0,954.91,529.34Z"/><path d="M989.35,544.7c-1-.06-2.31-.13-3.36-.13-1.33,0-3.13.07-3.78.13a.59.59,0,0,1-.13-1l1.15-.17c.58-.1.65-.37.68-1.66,0,0,.11-2,.11-3.67V535c0-2.65-.62-4.12-2.86-4.12a6.43,6.43,0,0,0-2.89.75v10.27c0,1.36.1,1.56.68,1.66l1.12.17a.63.63,0,0,1-.1,1c-1-.06-2.31-.13-3.37-.13-1.32,0-3,.07-3.67.13a.59.59,0,0,1-.13-1l1.15-.17c.58-.1.68-.37.68-1.66v-8.6c0-1.74-1-2.42-2.65-2.42a7.25,7.25,0,0,0-3.09.68v6c0,1.59.1,4.35.1,4.35,0,1.29.1,1.56.68,1.66l1.16.17a.59.59,0,0,1-.14,1c-.65-.06-2.45-.13-3.77-.13-1.06,0-2.35.07-3.37.13a.63.63,0,0,1-.1-1l1.12-.17c.75-.1.68-.44.68-1.66V532.4c0-.65-.14-.75-.34-1l-1.22-1.12c-.28-.27-.24-.54.06-.68L968,528c.68-.38,1-.24,1,.34,0,0-.13,1.19-.13,2.21v.41a7.16,7.16,0,0,1,5.23-2.66c2.62,0,3.74,1,4,2.69a8.79,8.79,0,0,1,5.54-2.72c3.37,0,3.94,2.35,3.94,3.77v9.83c0,1.22-.06,1.56.68,1.66l1.13.17A.63.63,0,0,1,989.35,544.7Z"/><path d="M1000.2,545.08c-2.62,0-4.15-1.26-4.86-1.26a1.6,1.6,0,0,0-1.12.51c-.31.31-.55.54-.85.54s-.38-.37-.38-.64c0,0,.21-3.27.21-7.48V524.17a1.21,1.21,0,0,0-.38-1l-1.36-1.36a.43.43,0,0,1,.21-.75l4.11-1.26c1.19-.37,1.33-.3,1.29.51,0,0-.23,3.91-.23,9.59a8.92,8.92,0,0,1,5.33-1.53c3.3,0,6.36,2.62,6.36,7.17C1008.53,540.69,1005.67,545.08,1000.2,545.08Zm-1.56-14.79a4.87,4.87,0,0,0-1.7.34s-.14,1.84-.14,3,0,3.23,0,3.23c0,4.79,1,7,4.11,7,2.72,0,3.87-3.67,3.87-6.36C1004.82,534.23,1003.8,530.29,998.64,530.29Z"/><path d="M1024.31,541.47a7.43,7.43,0,0,1-6.39,3.68c-4.73,0-7.48-3.37-7.48-8.54,0-5,3.12-8.33,8.15-8.33,2.59,0,5.61,1.3,5.58,4.22a3.51,3.51,0,0,1-.41,1.73l-9.86-.13a11.56,11.56,0,0,0-.06,1.46c0,4.18,2.68,6.76,5.54,6.76a6,6,0,0,0,4.52-1.73c.2-.14.51-.17.61,0S1024.44,541.24,1024.31,541.47Zm-6.22-12.13c-2.42,0-3.75,2.68-3.92,3.77l4.32-.1c1.77,0,2-.24,2-1.36A2.17,2.17,0,0,0,1018.09,529.34Z"/><path d="M1036.75,532.67a2.67,2.67,0,0,1-1.8-.82,1.56,1.56,0,0,0-1.26-.58c-.68,0-1,.31-1.63,1v1.53c0,1.73.1,8,.1,8,0,1.47.1,1.57.68,1.64l2.18.2a.62.62,0,0,1-.14,1.05c-.65-.06-3.3-.13-4.62-.13-1.06,0-2.52.07-3.54.13a.64.64,0,0,1-.1-1l1.12-.17c.75-.1.68-.44.68-1.66V532.4c0-.65-.13-.75-.34-1l-1.22-1.12c-.27-.3-.17-.54.06-.68l4.29-1.66c.68-.38,1-.24,1,.34,0,0-.13,1.36-.13,2.38v.61c.81-1.39,2.34-3.06,4.21-3.06,1.4,0,2.52.71,2.52,2.18A2.08,2.08,0,0,1,1036.75,532.67Z"/><path d="M1060.11,544.57h-12.55c-.75,0-.58-.58-.1-.92a34.42,34.42,0,0,0,3.67-3c2.18-2,4.08-4.08,4.08-6.63,0-2-1.29-3-3.43-3a5.26,5.26,0,0,0-3.23,1.19c-.51.37-.75.47-1,.47a.34.34,0,0,1-.38-.37c0-.44.41-1,1.29-1.84a8.12,8.12,0,0,1,5.41-2.24c2.82,0,4.83,1.6,4.83,4.45,0,1.84-.89,3.54-5.37,7.69l-1.4,1.29h5.68c1.87,0,2.89-1.19,3.91-3a.61.61,0,0,1,1,.27Z"/><path d="M1072.79,545.25a8.49,8.49,0,1,1,8.23-8.5A8.26,8.26,0,0,1,1072.79,545.25Zm0-14.69c-3.06,0-5.27,2.82-5.27,6.22s2.21,6.19,5.27,6.19,5.24-2.79,5.24-6.19S1075.85,530.56,1072.79,530.56Z"/><path d="M1096,544.57h-12.54c-.75,0-.58-.58-.11-.92a35.31,35.31,0,0,0,3.68-3c2.17-2,4.08-4.08,4.08-6.63,0-2-1.3-3-3.44-3a5.26,5.26,0,0,0-3.23,1.19c-.51.37-.75.47-1,.47a.33.33,0,0,1-.37-.37c0-.44.4-1,1.29-1.84a8.1,8.1,0,0,1,5.4-2.24c2.83,0,4.83,1.6,4.83,4.45,0,1.84-.88,3.54-5.37,7.69l-1.39,1.29h5.67c1.87,0,2.89-1.19,3.91-3a.62.62,0,0,1,1,.27Z"/><path d="M1114.68,544.74c-.68-.07-4.29-.17-5.61-.17-1.06,0-4.52.1-5.51.17a.77.77,0,0,1-.1-1.16l2.89-.3c.75-.07,1-.85,1-2V532.6c0-1.16-.13-2-.85-2l-3.12.2c-.38-.34-.45-.85-.14-1a29.47,29.47,0,0,0,6.94-2.07c.47-.34.91-.41.91.44v13.12c0,1.26.07,1.87,1.16,2l2.58.3A.72.72,0,0,1,1114.68,544.74Z"/></g></g></g><g id="Grupo_11" data-name="Grupo 11"><g id="Grupo"><g id="in" class="cls-1"><g class="cls-1"><path d="M291.88,655.17a8.25,8.25,0,0,1,.1,11.69,8.34,8.34,0,0,1-11.8-11.79A8.26,8.26,0,0,1,291.88,655.17Zm49.54-68.81c1.67,2.07,5.9,6.69,9.73,10.52,3.05,3,7.47,7.08,10.61,9.83a2.58,2.58,0,0,1-2.65,3.24l-3.73-2.75c-2.46-1.87-2.95-1-6.49,2.56l-27.42,27.42c-2,2-1.68,3.44-1.68,4.82l.1,6.58c0,1.58-1.08,2.46-2.55,1.77l-16.61-7.76c-2.17-1-4.92-1.77-1.38-5.11,0,0,7.76-7,12.29-11.5l26.73-26.74c3.74-3.74,3.93-4.52,2.56-6.49l-2.85-3.83A2.41,2.41,0,0,1,341.42,586.36Z"/><path d="M285.39,530.34c2.76,3.14,6.3,7.08,9.34,10.12,3.84,3.84,9.14,8.75,11.21,10.42a2.41,2.41,0,0,1-2.56,3.34l-3.64-2.65c-2-1.38-2.94-.79-6.78,2.85,0,0-10.42,9.63-16.9,16.12l-3.15,3.15c-5.9,5.89-12.19,12-4,20.15,5.41,5.4,9.34,6.39,11.11,6.78l13.07-13.07c6.29-6.29,16.12-16.91,16.12-16.91,3.64-3.83,4.23-4.82,2.85-6.78l-2.65-3.64a2.41,2.41,0,0,1,3.34-2.55c1.67,2.06,6.09,6.88,9.93,10.71,3,3,7.47,7.08,10.61,9.83a2.58,2.58,0,0,1-2.65,3.24l-3.74-2.75c-2.45-1.87-3.24-.69-6.78,2.85l-27.32,27.33c-1.87,1.86-1.77,2.55-1.77,3.73l.29,6.78c-.1,1.67-1.08,2.07-2.16,1.77l-17.2-7.57c-3.05-.88-3.64-2.26-1.87-3.83,0,0,3.83-3,6.78-6l1.18-1.18a33.48,33.48,0,0,1-25.26-9.93c-7.57-7.57-4.23-15.63,2-21.82l27.32-27.33c3.54-3.54,4.72-4.32,2.85-6.78L282.15,533A2.59,2.59,0,0,1,285.39,530.34Z"/></g></g><g id="translation" class="cls-1"><g class="cls-1"><path d="M529.61,593c6.08,6.09,8.77,11.57,8.47,16.66-.2,3.39-3,7.37-7.18,11.56l-26,25.63c-1.49,1.49-1.2,2-.8,2.79l2.6,5.38c.49,1.1-.2,2.79-2.3,2.5-7.38-1.2-20.34-3-25.62-2.9-1.4,0-3.09-1.69-1.2-3.39a83.76,83.76,0,0,0,7.08-6.08c1-1,1.2-1.59.4-2.39l-15.56-15.56a1,1,0,0,1,.3-1.49l4.69-2.69a1.76,1.76,0,0,1,2.39.39L491,637.56c.8.8,1.2.8,2,0,0,0,8.57-8,13.56-13C511.16,620,518,612.54,518,612.54c2.59-2.79,4.09-4.89,4.19-7.18.3-3.89-2.09-7.08-4.69-9.67A20.82,20.82,0,0,0,506.68,590c-1.5-.3-3.49-1.89-1-3.19C512.56,585.52,522.33,585.72,529.61,593Z"/><path d="M446.35,581.93a11.11,11.11,0,0,1,2.9,7.68c.1,1.89-.1,3.29,2,5.38s3.89,2.09,7.58,2l4.49-4.49c5.08-5.09,23.33-23.93,23.33-23.93,4.18-4.39,4.28-4.89,2.79-6.78l-5.78-7a2.56,2.56,0,0,1,3.48-2.69c1.7,2.09,9.28,10.07,13.17,14,3.09,3.09,7.57,7.17,10.76,10a2.62,2.62,0,0,1-2.69,3.29l-3.79-2.8c-2.49-1.89-3.29-.69-6.88,2.9L470,607.16c-1.89,1.89-1.79,2.59-1.79,3.78l.3,6.88c-.1,1.7-1.1,2.1-2.19,1.8l-17.45-7.68c-3.09-.9-3.69-2.29-1.9-3.89,0,0,4.39-3.59,7.38-6.58l1.8-1.79c-6.48,1.69-15.86,2.09-21.34-3.39-4.09-4.09-5.29-9.48-1-13.76S443.26,578.84,446.35,581.93Z"/><path d="M443.66,506.25c4.79,4.79,4.79,11,1.5,15.46,4.79,0,12.76-.4,18.75,5.58,4.58,4.59,8.07,13.66.69,21-4.68,4.69-10.27,4.89-17.25,1.89l-21-8.87-10.27,10.27c-4.89,4.89-.1,11.47,2.89,15.06,2.29,2.69,6.58,6,9.07,3.49a19.25,19.25,0,0,0,1.9-2.3l3.29-4.48a45.29,45.29,0,0,1,9.47,4.88,6.26,6.26,0,0,1-1.9,3.29c-4.88,4.89-24.82,5.68-34.6-4.09-8.37-8.37-9.87-16.85-3.78-22.93l26.82-26.82c4.38-4.39,4.88-6.68,2.29-9.27a8,8,0,0,0-3.79-2c-2.39-.2-2.09-1.49,0-2.59C432.7,501.87,439.28,501.87,443.66,506.25ZM430,537.66c-.69.7-.49,1.1.5,1.5l10.67,3.89c2.29.89,6.28,1.29,10.07-2.5s2.89-9.27-1.09-13.26A15,15,0,0,0,444,523.7Z"/><path d="M379.76,444.74c2.79,3.19,6.38,7.18,9.47,10.27,3.89,3.89,9.27,8.87,11.36,10.57A2.44,2.44,0,0,1,398,469l-3.69-2.7c-2-1.39-3-.79-6.88,2.9,0,0-10.57,9.77-17.15,16.35l-3.19,3.19c-6,6-12.36,12.16-4.08,20.44,5.48,5.48,9.47,6.48,11.26,6.88l13.26-13.26c6.38-6.38,16.35-17.15,16.35-17.15,3.69-3.89,4.29-4.89,2.9-6.88l-2.7-3.69a2.44,2.44,0,0,1,3.39-2.59c1.7,2.09,6.19,7,10.07,10.86,3.1,3.1,7.58,7.18,10.77,10a2.63,2.63,0,0,1-2.69,3.3l-3.79-2.8c-2.49-1.89-3.29-.69-6.88,2.9L387.23,524.4c-1.89,1.9-1.79,2.6-1.79,3.79l.3,6.88c-.1,1.7-1.1,2.1-2.19,1.8l-17.45-7.68c-3.1-.9-3.69-2.29-1.9-3.89,0,0,3.89-3.09,6.88-6.08l1.2-1.2A33.93,33.93,0,0,1,346.65,508c-7.67-7.68-4.28-15.85,2-22.13l27.72-27.72c3.59-3.59,4.78-4.39,2.89-6.88l-2.79-3.79A2.63,2.63,0,0,1,379.76,444.74Z"/><path d="M361.61,423.8a44.58,44.58,0,0,1,9.28,12.87c1,2,.69,2.69-1.4,5l-8.58,9.77c-1.29.5-3.38-1.4-2.79-3,2.7-5.28,7-13.36.5-19.84-5.68-5.68-12.16-7.18-17.85-1.5-4,4-3.39,8.18-1.59,13.16l3.69,9.87c2.29,6.29,3.39,14.16-4.29,21.84-8,8-21.34,7-32.21-3.89a53.79,53.79,0,0,1-8.57-11.76c-.5-1.3-1.2-2.6-.1-3.89l9.37-10.37c2-.4,3.39,1.39,3,3.39-3.09,4.69-6.08,12.86.1,19,4.29,4.29,11.37,4.39,15,.8,4.39-4.39,3.69-7.88,1.69-13.66l-3.88-11.27c-2-5.78-2.9-14.25,4.68-21.83C336.29,409.84,351,413.23,361.61,423.8Z"/><path d="M313.56,378.54c2.79,3.19,6.88,7.68,10,10.77,3.89,3.88,8.57,8.17,10.67,9.87a2.45,2.45,0,0,1-2.6,3.39l-3.89-2.89c-2-1.4-3.09-.9-6.88,2.89l-52.74,52.74c-1.7,1.7-1.5,2.5-1.5,3.49v7.58c0,1.8-1,2.79-2.39,2l-17.75-9.77c-2.69-1.49-2.39-2.19-1.29-3.29,0,0,12.86-11.26,28.91-27.32l36.1-36.09c3.59-3.59,4.78-4.39,2.89-6.88l-2.79-3.79A2.63,2.63,0,0,1,313.56,378.54Z"/><path d="M276.67,339.26c4.78,4.78,4.78,11,1.49,15.45,4.79,0,12.77-.4,18.75,5.58,4.58,4.59,8.07,13.66.7,21-4.69,4.69-10.27,4.89-17.25,1.9l-21-8.88-10.27,10.27c-4.89,4.89-.1,11.47,2.89,15.06,2.29,2.69,6.58,6,9.07,3.49a19.25,19.25,0,0,0,1.9-2.3l3.29-4.48a45.52,45.52,0,0,1,9.47,4.88,6.28,6.28,0,0,1-1.89,3.29c-4.89,4.89-24.83,5.69-34.6-4.08-8.38-8.38-9.87-16.86-3.79-22.94l26.82-26.82c4.39-4.39,4.88-6.68,2.29-9.27a8,8,0,0,0-3.79-2c-2.39-.19-2.09-1.49,0-2.59C265.7,334.87,272.28,334.87,276.67,339.26ZM263,370.66c-.7.7-.5,1.1.5,1.5l10.66,3.89c2.3.89,6.29,1.29,10.07-2.5s2.9-9.27-1.09-13.26A15,15,0,0,0,277,356.7Z"/><path d="M243.57,307c6.08,6.09,8.77,11.57,8.47,16.65-.2,3.39-3,7.38-7.18,11.57l-26,25.62c-1.5,1.5-1.2,2-.8,2.8l2.59,5.38c.5,1.1-.2,2.79-2.29,2.49-7.38-1.19-20.34-3-25.62-2.89-1.4,0-3.09-1.69-1.2-3.39a83.76,83.76,0,0,0,7.08-6.08c1-1,1.2-1.59.4-2.39l-15.56-15.56a1,1,0,0,1,.3-1.49l4.69-2.69a1.76,1.76,0,0,1,2.39.39L205,351.52c.8.8,1.2.8,2,0,0,0,8.57-8,13.55-13C225.12,334,232,326.5,232,326.5c2.59-2.8,4.09-4.89,4.19-7.18.3-3.89-2.1-7.08-4.69-9.67A20.84,20.84,0,0,0,220.63,304c-1.49-.3-3.49-1.89-1-3.19C226.52,299.48,236.29,299.67,243.57,307Z"/><path d="M154,339.06a8.37,8.37,0,0,1,.1,11.87,8.46,8.46,0,1,1-12-12A8.36,8.36,0,0,1,154,339.06Zm50.25-69.79c1.7,2.09,6,6.78,9.88,10.67,3.09,3.09,7.57,7.17,10.76,10a2.62,2.62,0,0,1-2.69,3.29l-3.79-2.8c-2.49-1.89-3-1-6.58,2.6L184,320.81c-2,2-1.69,3.49-1.69,4.89l.1,6.68c0,1.6-1.1,2.49-2.59,1.8L163,326.3c-2.2-1-5-1.8-1.4-5.19,0,0,7.88-7.08,12.46-11.66l27.12-27.12c3.79-3.79,4-4.59,2.6-6.58l-2.9-3.89A2.44,2.44,0,0,1,204.28,269.27Z"/><path d="M175,237c14.26,14.26,15.16,33.71-.89,49.76-15.06,15-37.19,11.66-49-.1-13.86-13.86-16.05-33.4.5-50C141.67,220.61,163.81,225.8,175,237Zm-45.16,46.77c8.87,8.87,20.24,2.89,29.91-6.78,12.36-12.37,19.74-28.12,10.37-37.49-8.78-8.78-20.24-2.69-30.21,7.28C128.71,257.9,119.64,273.56,129.81,283.73Z"/><path d="M92.62,157.6c2.79,3.19,6.38,7.18,9.47,10.27,3.89,3.89,9.28,8.88,11.37,10.57a2.44,2.44,0,0,1-2.59,3.39l-3.69-2.69c-2-1.4-3-.8-6.88,2.89,0,0-10.57,9.77-17.15,16.35L80,201.57c-6,6-12.37,12.17-4.09,20.44,5.48,5.49,9.47,6.48,11.27,6.88l13.26-13.26c6.38-6.38,16.35-17.15,16.35-17.15,3.69-3.89,4.29-4.88,2.89-6.88L117,187.91a2.44,2.44,0,0,1,3.39-2.59c1.69,2.09,6.18,7,10.07,10.87,3.09,3.09,7.58,7.18,10.77,10a2.63,2.63,0,0,1-2.7,3.29l-3.78-2.79c-2.5-1.9-3.29-.7-6.88,2.89L100.1,237.27c-1.9,1.89-1.8,2.59-1.8,3.79l.3,6.88c-.1,1.69-1.1,2.09-2.19,1.79L79,242.05c-3.09-.89-3.69-2.29-1.89-3.88,0,0,3.88-3.1,6.87-6.09l1.2-1.19a33.93,33.93,0,0,1-25.62-10.07c-7.68-7.68-4.29-15.86,2-22.14L89.23,171c3.59-3.59,4.79-4.38,2.89-6.88l-2.79-3.79A2.63,2.63,0,0,1,92.62,157.6Z"/></g></g></g><g id="Grupo-2"><g id="in-2" class="cls-1"><g class="cls-1"><path d="M329.74,134.74c-1.67-2.07-5.9-6.69-9.73-10.52-3.05-3-7.47-7.08-10.62-9.83a2.59,2.59,0,0,1,2.66-3.24l3.73,2.75c2.46,1.87,3,1,6.49-2.56l27.42-27.42c2-2,1.67-3.44,1.67-4.82l-.1-6.58c0-1.57,1.09-2.46,2.56-1.77l16.61,7.76c2.16,1,4.92,1.77,1.38,5.12,0,0-7.77,7-12.29,11.5l-26.73,26.73c-3.74,3.74-3.94,4.52-2.56,6.49l2.85,3.83A2.41,2.41,0,0,1,329.74,134.74Zm49.54-68.81a8.24,8.24,0,0,1-.1-11.69A8.34,8.34,0,1,1,391,66,8.24,8.24,0,0,1,379.28,65.93Z"/><path d="M385.76,190.76c-2.75-3.14-6.29-7.07-9.34-10.12-3.83-3.84-9.14-8.75-11.2-10.42a2.41,2.41,0,0,1,2.56-3.34l3.63,2.65c2,1.38,2.95.79,6.78-2.85,0,0,10.42-9.63,16.91-16.12l3.15-3.14c5.89-5.9,12.18-12,4-20.16-5.41-5.4-9.34-6.38-11.11-6.78L378.1,133.56c-6.3,6.29-16.12,16.9-16.12,16.9-3.64,3.84-4.23,4.82-2.85,6.79l2.65,3.63a2.41,2.41,0,0,1-3.34,2.56c-1.67-2.07-6.1-6.88-9.93-10.72-3.05-3-7.47-7.07-10.62-9.83a2.59,2.59,0,0,1,2.66-3.24l3.73,2.75c2.46,1.87,3.25.69,6.79-2.85l27.32-27.32c1.87-1.87,1.77-2.56,1.77-3.74l-.29-6.78C380,100,381,99.64,382,99.94l17.2,7.57c3,.88,3.64,2.26,1.87,3.83,0,0-3.84,3-6.79,6l-1.18,1.18a33.45,33.45,0,0,1,25.27,9.92c7.56,7.57,4.22,15.63-2,21.83l-27.32,27.32c-3.54,3.54-4.72,4.33-2.86,6.78l2.76,3.74A2.59,2.59,0,0,1,385.76,190.76Z"/></g></g><g id="translation-2" class="cls-1"><g class="cls-1"><path d="M143.78,125.87c-6.08-6.08-8.77-11.57-8.47-16.65.2-3.39,3-7.38,7.18-11.57l26-25.62c1.5-1.5,1.2-2,.8-2.79l-2.59-5.39c-.5-1.09.2-2.79,2.29-2.49,7.38,1.2,20.34,3,25.62,2.89,1.4,0,3.1,1.7,1.2,3.39a83.76,83.76,0,0,0-7.08,6.08c-1,1-1.2,1.6-.4,2.4l15.56,15.55a1,1,0,0,1-.3,1.5l-4.69,2.69a1.75,1.75,0,0,1-2.39-.4L182.37,81.3c-.8-.8-1.2-.8-2,0,0,0-8.58,8-13.56,13-4.59,4.59-11.47,12.07-11.47,12.07-2.59,2.79-4.09,4.88-4.19,7.18-.3,3.88,2.1,7.08,4.69,9.67a20.84,20.84,0,0,0,10.87,5.68c1.49.3,3.49,1.9,1,3.19C160.83,133.35,151.06,133.15,143.78,125.87Z"/><path d="M227,136.94a11.12,11.12,0,0,1-2.89-7.68c-.1-1.9.1-3.29-2-5.39s-3.89-2.09-7.58-2l-4.48,4.49c-5.09,5.08-23.33,23.93-23.33,23.93-4.19,4.38-4.29,4.88-2.8,6.78l5.79,7a2.57,2.57,0,0,1-3.49,2.7c-1.7-2.1-9.28-10.07-13.16-14-3.1-3.09-7.58-7.18-10.77-10a2.63,2.63,0,0,1,2.69-3.29l3.79,2.79c2.49,1.89,3.29.7,6.88-2.89l27.72-27.72c1.89-1.9,1.79-2.59,1.79-3.79l-.3-6.88c.1-1.69,1.1-2.09,2.2-1.79l17.44,7.67c3.1.9,3.69,2.3,1.9,3.89,0,0-4.39,3.59-7.38,6.58l-1.79,1.8c6.48-1.7,15.85-2.1,21.33,3.39,4.09,4.09,5.29,9.47,1,13.76S230.13,140,227,136.94Z"/><path d="M229.73,212.61c-4.79-4.79-4.79-11-1.5-15.45-4.78,0-12.76.4-18.74-5.59-4.59-4.58-8.08-13.66-.7-21,4.69-4.68,10.27-4.88,17.25-1.89l21,8.87,10.27-10.27c4.88-4.88.1-11.46-2.89-15.05-2.3-2.69-6.59-6-9.08-3.49a19.06,19.06,0,0,0-1.89,2.29l-3.29,4.49a45.17,45.17,0,0,1-9.48-4.89,6.3,6.3,0,0,1,1.9-3.29c4.88-4.88,24.83-5.68,34.6,4.09,8.37,8.38,9.87,16.85,3.79,22.93l-26.83,26.82c-4.38,4.39-4.88,6.68-2.29,9.28a8.05,8.05,0,0,0,3.79,2c2.39.2,2.09,1.5,0,2.59C240.7,217,234.11,217,229.73,212.61Zm13.66-31.41c.7-.7.5-1.09-.5-1.49l-10.67-3.89c-2.29-.9-6.28-1.3-10.07,2.49s-2.89,9.27,1.1,13.26a14.76,14.76,0,0,0,6.18,3.59Z"/><path d="M293.64,274.13c-2.8-3.19-6.39-7.18-9.48-10.27-3.88-3.89-9.27-8.88-11.36-10.57a2.44,2.44,0,0,1,2.59-3.39l3.69,2.69c2,1.4,3,.8,6.88-2.89,0,0,10.57-9.77,17.15-16.35l3.19-3.19c6-6,12.36-12.17,4.09-20.44-5.49-5.49-9.47-6.49-11.27-6.88L285.86,216.1c-6.38,6.38-16.35,17.15-16.35,17.15-3.69,3.89-4.29,4.88-2.89,6.88l2.69,3.69a2.44,2.44,0,0,1-3.39,2.59c-1.7-2.1-6.18-7-10.07-10.87-3.09-3.09-7.58-7.18-10.77-10a2.63,2.63,0,0,1,2.69-3.29l3.79,2.79c2.49,1.9,3.29.7,6.88-2.89l27.72-27.72c1.89-1.89,1.79-2.59,1.79-3.79l-.3-6.88c.1-1.69,1.1-2.09,2.2-1.79l17.45,7.67c3.09.9,3.68,2.3,1.89,3.89,0,0-3.89,3.09-6.88,6.09l-1.2,1.19a34,34,0,0,1,25.63,10.07c7.68,7.68,4.29,15.86-2,22.14L297,260.77c-3.59,3.58-4.79,4.38-2.9,6.88l2.8,3.79A2.63,2.63,0,0,1,293.64,274.13Z"/><path d="M311.78,295.06a44.32,44.32,0,0,1-9.27-12.86c-1-2-.7-2.69,1.39-5l8.58-9.77c1.29-.5,3.39,1.4,2.79,3-2.69,5.29-7,13.36-.5,19.85,5.68,5.68,12.16,7.17,17.85,1.49,4-4,3.39-8.17,1.59-13.16l-3.69-9.87c-2.29-6.28-3.39-14.16,4.29-21.84,8-8,21.34-7,32.21,3.89a54,54,0,0,1,8.57,11.77c.5,1.29,1.2,2.59.1,3.89l-9.37,10.36c-2,.4-3.39-1.39-3-3.38,3.09-4.69,6.08-12.87-.1-19.05-4.29-4.29-11.37-4.39-15-.8-4.38,4.39-3.69,7.88-1.69,13.66l3.89,11.27c2,5.78,2.89,14.26-4.69,21.84C337.1,309,322.35,305.63,311.78,295.06Z"/><path d="M359.84,340.33c-2.8-3.19-6.88-7.68-10-10.77-3.88-3.89-8.57-8.18-10.66-9.87a2.44,2.44,0,0,1,2.59-3.39l3.89,2.89c2,1.39,3.09.9,6.88-2.89l52.74-52.75c1.7-1.69,1.5-2.49,1.5-3.49v-7.58c0-1.79,1-2.79,2.39-2l17.75,9.77c2.69,1.5,2.39,2.2,1.29,3.29,0,0-12.86,11.27-28.91,27.32L363.23,327c-3.59,3.59-4.79,4.39-2.9,6.89l2.8,3.78A2.64,2.64,0,0,1,359.84,340.33Z"/><path d="M396.73,379.61c-4.79-4.79-4.79-11-1.5-15.46-4.79,0-12.76.4-18.75-5.58-4.58-4.59-8.07-13.66-.69-21,4.68-4.68,10.27-4.88,17.25-1.89l21,8.87,10.27-10.27c4.89-4.88.1-11.46-2.89-15.05-2.29-2.7-6.58-6-9.07-3.49a18.42,18.42,0,0,0-1.9,2.29l-3.29,4.49a45.36,45.36,0,0,1-9.47-4.89,6.26,6.26,0,0,1,1.9-3.29c4.88-4.88,24.82-5.68,34.59,4.09,8.38,8.37,9.88,16.85,3.79,22.93l-26.82,26.82c-4.38,4.39-4.88,6.68-2.29,9.28a8,8,0,0,0,3.79,2c2.39.2,2.09,1.49,0,2.59C407.69,384,401.11,384,396.73,379.61Zm13.65-31.41c.7-.7.5-1.1-.49-1.5l-10.67-3.88c-2.3-.9-6.28-1.3-10.07,2.49s-2.89,9.27,1.09,13.26a14.86,14.86,0,0,0,6.19,3.59Z"/><path d="M429.82,411.91c-6.08-6.08-8.77-11.57-8.47-16.65.2-3.39,3-7.38,7.18-11.57l26-25.62c1.5-1.5,1.2-2,.8-2.79l-2.59-5.39c-.5-1.09.2-2.79,2.29-2.49,7.38,1.2,20.34,3,25.63,2.89,1.39,0,3.09,1.7,1.19,3.39a83.76,83.76,0,0,0-7.08,6.08c-1,1-1.19,1.6-.4,2.4L490,377.71a1,1,0,0,1-.3,1.5L485,381.9a1.75,1.75,0,0,1-2.39-.4l-14.16-14.16c-.8-.8-1.2-.8-2,0,0,0-8.58,8-13.56,13-4.59,4.59-11.47,12.07-11.47,12.07-2.59,2.79-4.09,4.88-4.19,7.18-.3,3.89,2.1,7.08,4.69,9.67a20.8,20.8,0,0,0,10.87,5.68c1.49.3,3.49,1.9,1,3.19C446.87,419.39,437.1,419.19,429.82,411.91Z"/><path d="M469.11,449.6c-1.7-2.1-6-6.78-9.87-10.67-3.09-3.09-7.58-7.18-10.77-10a2.63,2.63,0,0,1,2.69-3.29l3.79,2.79c2.49,1.89,3,1,6.58-2.59l27.82-27.82c2-2,1.69-3.49,1.69-4.89l-.1-6.68c0-1.59,1.1-2.49,2.59-1.79l16.86,7.88c2.19,1,5,1.79,1.39,5.18,0,0-7.88,7.08-12.46,11.67L472.2,436.54c-3.79,3.79-4,4.58-2.59,6.58L472.5,447A2.44,2.44,0,0,1,469.11,449.6Zm50.25-69.8a8.36,8.36,0,0,1-.1-11.86,8.46,8.46,0,1,1,12,12A8.36,8.36,0,0,1,519.36,379.8Z"/><path d="M498.42,481.9c-14.26-14.26-15.16-33.7.9-49.75,15.05-15.06,37.19-11.67,48.95.1,13.86,13.85,16.05,33.4-.5,49.95C531.72,498.25,509.59,493.07,498.42,481.9Zm45.17-46.76c-8.88-8.88-20.24-2.89-29.92,6.78-12.36,12.36-19.74,28.11-10.37,37.49,8.78,8.77,20.24,2.69,30.21-7.28C544.68,461,553.76,445.31,543.59,435.14Z"/><path d="M580.77,561.26c-2.79-3.19-6.38-7.18-9.47-10.27-3.89-3.89-9.27-8.87-11.37-10.57a2.45,2.45,0,0,1,2.6-3.39l3.68,2.7c2,1.39,3,.79,6.88-2.9,0,0,10.57-9.77,17.15-16.35l3.19-3.19c6-6,12.37-12.16,4.09-20.44-5.48-5.48-9.47-6.48-11.26-6.88L573,503.23c-6.39,6.38-16.36,17.15-16.36,17.15-3.69,3.89-4.28,4.89-2.89,6.88l2.69,3.69a2.44,2.44,0,0,1-3.39,2.59c-1.69-2.09-6.18-7-10.07-10.86-3.09-3.09-7.57-7.18-10.77-10a2.63,2.63,0,0,1,2.7-3.28l3.79,2.79c2.49,1.89,3.29.69,6.88-2.89l27.71-27.72c1.9-1.9,1.8-2.59,1.8-3.79l-.3-6.88c.1-1.7,1.1-2.1,2.19-1.8l17.45,7.68c3.09.9,3.69,2.29,1.9,3.89,0,0-3.89,3.09-6.88,6.08l-1.2,1.2a33.93,33.93,0,0,1,25.63,10.07c7.67,7.68,4.28,15.85-2,22.13L584.16,547.9c-3.59,3.59-4.78,4.39-2.89,6.88l2.79,3.79A2.63,2.63,0,0,1,580.77,561.26Z"/></g></g></g></g></svg>