<svg width="128" height="34" viewBox="0 0 128 34" fill="none" xmlns="http://www.w3.org/2000/svg">
  <g clip-path="url(#clip0)">
    <path d="M6.82944 7.27985L12.7676 0.386475H8.87131L4.01652 6.12082V0.386475H0.736694V15.6759H4.01652V8.68385L9.59468 15.6759H13.6587L6.82944 7.27985Z" fill="black"/>
    <path d="M21.6502 0.386475V10.1569C21.6502 12.2086 20.7213 13.1655 18.7271 13.1655C16.7477 13.1655 15.8271 12.2103 15.8271 10.1569V0.386475H12.5686V10.3936C12.5686 14.3146 14.4674 16.0622 18.7288 16.0622C23.018 16.0622 24.9316 14.3146 24.9316 10.3936V0.386475H21.6502Z" fill="black"/>
    <path d="M29.3229 12.8005V0.386475H26.0414V15.6759H33.7157V12.8005H29.3229Z" fill="black"/>
    <path d="M31.4551 0.386475V3.19775H34.9503V15.6759H38.2104V3.19775H45.1399V0.386475H31.4551Z" fill="black"/>
    <path d="M50.9615 0.386475V10.1569C50.9615 12.2086 50.0326 13.1655 48.0384 13.1655C46.059 13.1655 45.1383 12.2103 45.1383 10.1569V0.386475H41.8799V10.3936C41.8799 14.3146 43.7804 16.0622 48.04 16.0622C52.3293 16.0622 54.2429 14.3146 54.2429 10.3936V0.386475H50.9615Z" fill="black"/>
    <path d="M63.2883 9.302C64.7975 9.06691 65.8414 8.30079 66.3889 7.02503C66.6503 6.43318 66.7999 5.64241 66.7999 4.85164C66.7999 4.05429 66.6618 3.33749 66.3889 2.72098C65.6951 1.17232 64.1185 0.386475 61.7051 0.386475H55.3542V15.6759H58.6357V9.40393H59.7339L64.1284 15.6496L64.1465 15.6759H67.9261L63.2883 9.302ZM63.4346 4.93877C63.4346 5.36621 63.3787 5.68022 63.2488 5.98601C62.9266 6.65513 62.1358 6.98064 60.8321 6.98064H58.6357V2.98238H60.8321C62.195 2.98238 62.9463 3.28982 63.2686 3.97537C63.3787 4.24006 63.4346 4.56558 63.4346 4.93877Z" fill="black"/>
    <path d="M77.1424 0.386475V6.53018H71.0431V0.386475H67.7616V15.6759H71.0431V9.36119H77.1424V15.6759H80.4238V0.386475H77.1424Z" fill="black"/>
    <path d="M90.6267 0.386475V10.1569C90.6267 12.2086 89.6978 13.1655 87.7036 13.1655C85.7242 13.1655 84.802 12.2103 84.802 10.1569V0.386475H81.5419V10.3936C81.5419 14.3146 83.4424 16.0622 87.702 16.0622C91.9913 16.0622 93.9049 14.3146 93.9049 10.3936V0.386475H90.6267Z" fill="black"/>
    <path d="M106.521 9.3364C105.775 7.69731 103.933 7.07258 102.11 6.57444C101.832 6.49882 101.558 6.42812 101.29 6.35907C99.8316 5.98424 98.5739 5.66036 98.2089 4.87452C98.1234 4.63614 98.1054 4.44379 98.1054 4.20869C98.1054 3.96209 98.1251 3.77467 98.2287 3.5478C98.5196 2.89841 99.3269 2.51042 100.389 2.51042C101.495 2.51042 102.235 2.89512 102.592 3.65466C102.75 4.01306 102.822 4.42406 102.822 4.98303V5.0455H106.209V4.98138C106.209 4.11498 106.082 3.42614 105.799 2.74387C105.005 0.974904 103.129 0 100.517 0C97.8801 0 95.8662 1.01765 95.1297 2.72085C94.8485 3.33243 94.7187 3.91441 94.7187 4.55065C94.7187 5.33156 94.9159 5.90532 95.0656 6.27194C95.6048 7.4918 96.8148 8.29737 98.9849 8.88429C99.3071 8.978 99.631 9.06513 99.9434 9.14898C101.43 9.54847 102.714 9.89207 103.123 10.8045C103.238 11.061 103.289 11.2895 103.289 11.5739C103.289 11.832 103.231 12.0836 103.103 12.3861C102.792 13.0716 101.921 13.4662 100.709 13.4662C99.4304 13.4662 98.5887 13.0453 98.2089 12.2151C98.0544 11.8649 97.9788 11.4177 97.9788 10.844V10.7815H94.3767L94.3784 10.8456C94.4014 11.7794 94.5493 12.5389 94.8305 13.167C95.6755 15.0329 97.7256 16.0604 100.601 16.0604C103.519 16.0604 105.653 15.0214 106.457 13.2097C106.733 12.5833 106.868 11.929 106.868 11.2089C106.868 10.5152 106.756 9.90194 106.521 9.3364Z" fill="black"/>
    <path d="M117.061 3.15501V0.386475H107.299V15.6759H117.061V12.909H110.58V9.2757H116.997V6.55155H110.58V3.15501H117.061Z" fill="black"/>
    <path d="M107.299 0.386475V3.19775H120.628V15.6759H123.889V3.19775H127.364V0.386475H107.299Z" fill="black"/>
    <path d="M10.2521 28.6865C9.55834 27.2019 7.85842 26.6627 6.31962 26.2763L6.08781 26.2254C4.90905 25.9672 3.79604 25.7239 3.4656 25.0302C3.41956 24.9545 3.39655 24.8279 3.39655 24.652C3.39655 24.4597 3.42285 24.3051 3.47382 24.1868C3.69083 23.7363 4.25308 23.5094 5.14579 23.5094C6.03356 23.5094 6.69445 23.8267 6.95914 24.3693C7.08409 24.6685 7.1367 24.9299 7.1367 25.2718V25.4592H10.0302V25.2718C10.0302 24.5797 9.92331 23.9944 9.70137 23.4782C9.02074 22.0528 7.46221 21.3015 5.19511 21.3015C2.97732 21.3015 1.35139 22.0874 0.736521 23.4552C0.537595 23.8777 0.432378 24.3824 0.432378 24.9151C0.432378 25.4625 0.508002 25.8686 0.688845 26.278C1.35632 27.7362 3.04144 28.2952 4.4405 28.6207C6.08781 28.9528 6.96243 29.1566 7.27315 29.7945C7.34055 29.9507 7.37837 30.1447 7.37837 30.3387C7.37837 30.5426 7.33891 30.6872 7.27479 30.8566C7.0397 31.3827 6.37223 31.649 5.2921 31.649C4.20869 31.649 3.50176 31.3021 3.18447 30.6067C3.03651 30.3338 2.96746 30.0066 2.96746 29.5775V29.3885H0V29.5775C0 30.3486 0.13481 31.0308 0.399497 31.6062C1.11465 33.173 2.78826 33.9999 5.24278 33.9999C7.70881 33.9999 9.51724 33.1631 10.2077 31.6934C10.4149 31.1771 10.5086 30.679 10.5086 30.0773C10.5086 29.5331 10.4247 29.081 10.2521 28.6865Z" fill="black"/>
    <path d="M18.2684 24.1491V21.6075H14.9393V18.3523H11.9258V21.6075H10.1058V24.1491H11.9258V29.8604C11.9258 32.606 13.1144 33.8308 15.7794 33.8308C16.483 33.8308 17.3001 33.742 18.0218 33.5891L18.1714 33.5578V30.9636L17.9264 31.0359C17.3938 31.1937 16.8463 31.2184 16.5685 31.2184C15.4259 31.2184 14.9376 30.6693 14.9376 29.3853V24.1491H18.2684V24.1491Z" fill="black"/>
    <path d="M39.8314 17.3296V22.6447C38.9141 21.7504 37.6827 21.2983 36.1653 21.2983C33.8406 21.2983 32.0782 22.3685 31.202 24.3117C30.7614 25.2899 30.5394 26.4029 30.5394 27.6245C30.5394 28.8131 30.7696 29.9491 31.202 30.9125C32.0766 32.8557 33.839 33.926 36.1653 33.926C37.7254 33.926 38.9815 33.4542 39.9038 32.522V33.6399H42.8696V17.3296H39.8314V17.3296ZM39.8561 27.3154V27.9105C39.8561 30.0888 38.7562 31.3383 36.8377 31.3383C35.5192 31.3383 34.5771 30.7925 34.1152 29.765C33.8669 29.1731 33.7469 28.4728 33.7469 27.6245C33.7469 26.7728 33.8702 26.0445 34.1135 25.4658C34.5706 24.4498 35.5126 23.9122 36.8377 23.9122C38.7546 23.9106 39.8561 25.1518 39.8561 27.3154Z" fill="black"/>
    <path d="M53.6379 28.6865C52.9424 27.2003 51.2425 26.6627 49.7037 26.2763L49.4719 26.2254C48.2931 25.9672 47.1801 25.7239 46.8497 25.0302C46.8037 24.9545 46.7806 24.8279 46.7806 24.652C46.7806 24.4597 46.8069 24.3051 46.8579 24.1868C47.0749 23.7363 47.6372 23.5094 48.5299 23.5094C49.4177 23.5094 50.0785 23.8267 50.3432 24.3693C50.4682 24.6685 50.5208 24.9299 50.5208 25.2718V25.4592H53.4143V25.2718C53.4143 24.5797 53.3074 23.9944 53.0855 23.4782C52.4048 22.0528 50.8463 21.3015 48.5792 21.3015C46.3614 21.3015 44.7355 22.0874 44.1206 23.4552C43.9217 23.8777 43.8148 24.3824 43.8148 24.9151C43.8148 25.4625 43.8905 25.8686 44.0713 26.278C44.7388 27.7362 46.4222 28.2952 47.8213 28.6207C49.4686 28.9528 50.3432 29.1566 50.654 29.7945C50.7214 29.9507 50.7575 30.1447 50.7575 30.3387C50.7575 30.5426 50.7181 30.6872 50.654 30.8566C50.4189 31.3827 49.7514 31.649 48.6713 31.649C47.5879 31.649 46.8793 31.3021 46.5636 30.6067C46.4157 30.3338 46.3466 30.0066 46.3466 29.5775V29.3885H43.3857V29.5775C43.3857 30.3486 43.5206 31.0308 43.7852 31.6062C44.5004 33.173 46.174 33.9999 48.6269 33.9999C51.0929 33.9999 52.9013 33.1631 53.5918 31.6934C53.8006 31.1771 53.8927 30.679 53.8927 30.0773C53.8943 29.5331 53.8105 29.0794 53.6379 28.6865Z" fill="black"/>
    <path d="M61.5967 24.1491V21.6075H58.3218V18.3523H55.3576V21.6075H53.5673V24.1491H55.3576V29.8604C55.3576 32.606 56.5265 33.8308 59.1487 33.8308C59.8409 33.8308 60.6448 33.742 61.355 33.5891L61.503 33.5578V30.9636L61.2629 31.0359C60.7385 31.1937 60.2009 31.2184 59.9263 31.2184C58.8018 31.2184 58.3218 30.6693 58.3218 29.3853V24.1491H61.5967V24.1491Z" fill="black"/>
    <path d="M93.0384 24.1491V21.6075H89.7635V18.3523H86.7994V21.6075H85.009V24.1491H86.7994V29.8604C86.7994 32.606 87.9683 33.8308 90.5905 33.8308C91.2826 33.8308 92.0866 33.742 92.7968 33.5891L92.9447 33.5578V30.9636L92.7047 31.0359C92.1803 31.1937 91.6427 31.2184 91.3681 31.2184C90.2436 31.2184 89.7635 30.6693 89.7635 29.3853V24.1491H93.0384V24.1491Z" fill="black"/>
    <path d="M119.427 21.2983C117.983 21.2983 116.836 21.734 116.009 22.5955V21.6074H113.02V33.6417H116.009V26.888C116.009 24.9135 116.905 23.9123 118.674 23.9123C120.337 23.9123 121.079 24.7935 121.079 26.7696V33.6433H124.043V26.2468C124.043 23.0542 122.404 21.2983 119.427 21.2983Z" fill="black"/>
    <path d="M111.327 21.4414C110.11 21.4414 109.145 21.8327 108.45 22.6037V21.6075H105.485V33.64H108.474V27.5522C108.474 25.3098 109.434 24.1721 111.327 24.1721C111.646 24.1721 112.011 24.2034 112.295 24.2527V21.5269C112.006 21.471 111.672 21.4414 111.327 21.4414Z" fill="black"/>
    <path d="M69.7607 30.7679C69.279 31.2118 68.4784 31.4567 67.5068 31.4567C66.0518 31.4567 65.0522 30.9191 64.6116 29.8999C64.4489 29.553 64.3486 29.1239 64.2927 28.5271H73.4894V28.338C73.4894 26.6348 73.3134 25.5531 72.8613 24.4812L72.8597 24.4779C71.9588 22.4574 69.9564 21.2983 67.3654 21.2983C64.7415 21.2983 62.7818 22.436 61.8464 24.5025C61.4436 25.4166 61.2644 26.3718 61.2644 27.5999C61.2644 28.8115 61.4551 29.8324 61.8464 30.7219C62.7703 32.7884 64.7974 33.9261 67.5544 33.9261C69.3513 33.9261 70.928 33.4016 71.9933 32.4481C72.7857 31.6968 73.2543 30.7301 73.3973 29.5776H70.42C70.3164 30.0429 70.0731 30.4868 69.7607 30.7679ZM64.6133 25.3689C65.0769 24.3217 66.0173 23.7907 67.4114 23.7907C68.7727 23.7907 69.6982 24.2905 70.1586 25.2621C70.2852 25.6007 70.3591 25.8917 70.4068 26.2205H64.3502C64.3996 25.918 64.4818 25.655 64.6133 25.3689Z" fill="black"/>
    <path d="M101.201 30.7679C100.719 31.2118 99.9185 31.4567 98.9469 31.4567C97.492 31.4567 96.4924 30.9191 96.0518 29.8999C95.8891 29.553 95.7888 29.1239 95.7329 28.5271H104.93V28.338C104.93 26.6348 104.754 25.5531 104.302 24.4812L104.3 24.4779C103.399 22.4574 101.397 21.2983 98.8055 21.2983C96.1817 21.2983 94.222 22.436 93.2866 24.5025C92.8838 25.4166 92.7046 26.3718 92.7046 27.5999C92.7046 28.8115 92.8953 29.8324 93.2866 30.7219C94.2105 32.7884 96.2376 33.9261 98.9946 33.9261C100.792 33.9261 102.368 33.4016 103.433 32.4481C104.226 31.6968 104.694 30.7301 104.837 29.5776H101.86C101.757 30.0429 101.515 30.4868 101.201 30.7679ZM96.0551 25.3689C96.5187 24.3217 97.4591 23.7907 98.8532 23.7907C100.214 23.7907 101.14 24.2905 101.6 25.2621C101.727 25.6007 101.801 25.8917 101.849 26.2205H95.7921C95.8414 25.918 95.9236 25.655 96.0551 25.3689Z" fill="black"/>
    <path d="M29.4494 23.766C28.7129 22.1056 27.0573 21.2983 24.3907 21.2983C21.6896 21.2983 19.9552 22.1039 19.2384 23.6887C18.9983 24.1902 18.8865 24.7491 18.8849 25.4478H21.9461C21.9477 25.2193 21.9872 25.0319 22.0973 24.7508C22.4048 24.08 23.1413 23.7677 24.4154 23.7677C25.6254 23.7677 26.3685 24.1047 26.6858 24.7985C26.8568 25.1799 26.9094 25.4791 26.9094 26.0775V26.1992H24.6571C22.2798 26.1992 19.7168 26.4836 18.7353 28.5945C18.5314 29.0515 18.4312 29.5743 18.4312 30.1925C18.4312 30.832 18.5331 31.34 18.7583 31.8398C19.3715 33.2043 20.8643 33.9261 23.0755 33.9261C24.7376 33.9261 26.0249 33.492 26.9094 32.6339V33.64H29.9475V26.625C29.9442 25.4331 29.7815 24.4976 29.4494 23.766ZM26.6381 29.9705C26.1827 30.9422 25.1914 31.4551 23.7693 31.4551C23.1446 31.4551 22.0447 31.3433 21.6912 30.592C21.6074 30.4029 21.563 30.1892 21.563 29.9558C21.563 29.7256 21.6025 29.5415 21.6896 29.3672C22.0562 28.5698 23.6526 28.4778 24.8215 28.4778H26.9061C26.9028 29.0581 26.8107 29.5612 26.6381 29.9705Z" fill="black"/>
    <path d="M84.5947 23.766C83.8697 22.1056 82.2405 21.2983 79.6166 21.2983C76.9582 21.2983 75.2517 22.1039 74.5481 23.6887C74.3114 24.1902 74.2012 24.7491 74.2012 25.4478H77.2131C77.2147 25.2193 77.2542 25.0319 77.361 24.7508C77.6635 24.08 78.3885 23.7677 79.6413 23.7677C80.8315 23.7677 81.5631 24.1047 81.8739 24.7985C82.0432 25.1799 82.0942 25.4791 82.0942 26.0775V26.1992H79.878C77.5386 26.1992 75.0183 26.4836 74.0532 28.5945C73.8527 29.0515 73.754 29.5743 73.754 30.1925C73.754 30.832 73.8527 31.34 74.0763 31.8398C74.6796 33.2043 76.1477 33.9261 78.3228 33.9261C79.9586 33.9261 81.2245 33.492 82.0942 32.6339V33.64H85.083V26.625C85.0813 25.4331 84.9219 24.4976 84.5947 23.766ZM81.8278 29.9705C81.3806 30.9422 80.4041 31.4551 79.005 31.4551C78.3902 31.4551 77.3084 31.3433 76.9615 30.592C76.8777 30.4029 76.8366 30.1892 76.8366 29.9558C76.8366 29.7256 76.8744 29.5415 76.9615 29.3672C77.3232 28.5698 78.8932 28.4778 80.0441 28.4778H82.0958C82.0892 29.0581 81.9988 29.5612 81.8278 29.9705Z" fill="black"/>
  </g>
  <defs>
    <clipPath id="clip0">
      <rect width="127.5" height="34" fill="white"/>
    </clipPath>
  </defs>
</svg>
